<svg id="eWPFkBrGd5e1" xmlns="http://www.w3.org/2000/svg" xmlns:xlink="http://www.w3.org/1999/xlink" viewBox="0 0 817 325" shape-rendering="geometricPrecision" text-rendering="geometricPrecision"><g id="eWPFkBrGd5e2"><g id="eWPFkBrGd5e3"><g id="eWPFkBrGd5e4"><path id="eWPFkBrGd5e5" d="M233.800000,270.400000C234.700000,278.900000,232,287,225.800000,294.600000C217.100000,305.600000,203.400000,310.700000,184.700000,309.900000C170.500000,309.300000,159,304.700000,150.300000,296.200000C137.500000,308.300000,119.500000,314.800000,96.100000,315.600000C83.800000,314.500000,73.200000,312,64.200000,308C42.500000,298.600000,31.200000,282.700000,30.100000,260.200000C28.600000,229,42.900000,212.800000,73.100000,211.800000L78,211.800000C79.700000,207.100000,80.600000,202.400000,80.600000,197.800000C80.600000,185.700000,75.400000,175.900000,65,168.500000C66.100000,161.300000,71.300000,155.900000,80.600000,152.300000L80,146.200000C73.400000,147.100000,69.800000,144.800000,69.200000,139.500000C69,134.600000,72,130.900000,78.100000,128.400000C80.400000,96.100000,98.900000,76.200000,133.500000,68.800000C125.600000,77.300000,121.700000,88.200000,121.700000,101.600000C121.700000,106.700000,122.600000,115.600000,124.300000,128.400000C126,141.600000,126.900000,152.100000,127.200000,160C127,170.200000,125.800000,179,123.700000,186.400000C118.400000,204.200000,108.700000,214,94.700000,215.700000C100.600000,219.300000,106.300000,221.100000,111.600000,221.100000C118.800000,221.100000,124.900000,218.200000,129.800000,212.500000C132.800000,208.900000,134.300000,202.200000,134.300000,192.400000L134.300000,52.400000L134,52.700000C123.400000,62.500000,111.800000,67.400000,99.300000,67.400000C92.700000,67.400000,84.200000,65.200000,73.800000,60.700000L74.100000,60.700000C75.600000,61.800000,76,63.600000,75.400000,66.100000C74.300000,69.100000,72.500000,70.600000,70,70.600000C68.900000,70.600000,67.800000,70.200000,66.500000,69.300000C63.500000,67.800000,62,65.300000,62,61.600000C62,60.100000,62.300000,58.500000,63,56.800000C54.300000,53.200000,47.800000,51.400000,43.600000,51.400000C36.600000,51.400000,30.800000,53.800000,26.200000,58.700000C21.600000,63.600000,19.300000,69.600000,19.300000,76.900000C19.300000,82.400000,21.400000,87.800000,25.700000,93.100000L22.200000,89.600000C16.700000,83.400000,13.900000,75.800000,13.900000,66.700000C13.900000,53.300000,18.600000,42.300000,28.100000,33.700000C37.600000,25.100000,49.600000,21.400000,64.300000,22.700000C77.500000,24.200000,88.700000,26.700000,98.100000,30.400000C111.300000,35.900000,119.700000,38.700000,123.300000,38.700000C132.700000,38.700000,142.500000,34.800000,152.900000,26.900000C146.500000,33.300000,143.300000,42.600000,143.300000,54.900000L143.300000,203.700000C143.300000,242.800000,127.700000,264.800000,96.500000,269.700000C87.400000,269.500000,78.600000,267.600000,70.100000,264C67.800000,262.900000,65.400000,262.400000,63.100000,262.400000C59.500000,262.400000,56.600000,263.600000,54.300000,266.100000C52.100000,268.500000,51,271.200000,51,274.200000C51.400000,280.200000,54.600000,285.900000,60.600000,291.400000C69.300000,299.300000,81.600000,303.600000,97.600000,304.500000C117.400000,305.100000,133,299.900000,144.400000,288.900000C139.500000,281.500000,137.100000,275,137.100000,269.500000C136.900000,256.300000,142.200000,249,153,247.500000C162.100000,247.700000,166.600000,253.700000,166.400000,265.300000C165.100000,274.700000,161.900000,282.700000,156.800000,289.500000C164.400000,296.300000,175.600000,299.600000,190.300000,299.400000C217.300000,297.500000,229.500000,287.100000,226.900000,268.200000C226.500000,263.300000,225.100000,259.400000,222.800000,256.400000C220.700000,253.200000,221.100000,251.600000,224.100000,251.600000C226.200000,251.600000,228.400000,254.100000,230.600000,259.200000C232.800000,264.300000,233.600000,268,233.800000,270.400000ZM145.900000,33.600000C137.600000,38.500000,129.800000,40.900000,122.300000,40.900000C118.100000,40.900000,114.300000,40.100000,111.100000,38.300000C92.800000,29.800000,75.400000,25.300000,58.800000,24.900000C53.300000,25.100000,48.300000,26,43.800000,27.500000C33,31.100000,25.400000,37.500000,21.200000,46.600000C17.800000,52.500000,16.100000,59.200000,16.100000,66.700000C16.100000,69.900000,16.500000,73,17.400000,75.900000C19,58.800000,27.600000,50.200000,43.300000,50.200000C49.700000,50.200000,56.600000,51.800000,64,55C64.800000,55.200000,65.500000,55.100000,65.900000,54.700000C66.100000,54.100000,65.900000,53.500000,65.300000,53.100000C56,49.500000,48.100000,47.700000,41.700000,47.700000C31.100000,47.700000,23.200000,53,18.100000,63.600000C21.500000,40.900000,35.200000,28.900000,59.200000,27.600000C64.100000,27.800000,69.100000,28.400000,74.200000,29.200000C86.300000,31.100000,97.600000,34.500000,108,39.400000C112.900000,42,118.200000,43.200000,123.900000,43.200000C129.400000,43.200000,134.500000,42,139.200000,39.700000C130.500000,55,117.600000,62.600000,100.600000,62.600000C92.900000,62.600000,85.600000,61.100000,78.600000,58.100000C78,57.900000,76.600000,57.500000,74.500000,56.800000C73.700000,56.200000,72.900000,56.300000,72.300000,57.100000C72.100000,57.700000,72.300000,58.400000,72.900000,59C86.900000,64.100000,96.200000,66.200000,100.600000,65.400000C107,64.600000,112.700000,63,117.800000,60.600000C130.600000,55.200000,139.900000,46.200000,145.900000,33.600000ZM164.400000,265.300000C165,261.500000,164.200000,257.800000,162,254.300000C159.800000,250.800000,157.100000,249.200000,153.900000,249.400000C150.300000,249.400000,147.200000,251,144.700000,254.300000C142.100000,257.600000,140.900000,261.800000,140.900000,266.900000C141.100000,273.700000,143.300000,280.100000,147.600000,286C148.200000,285.100000,148.900000,284.300000,149.500000,283.500000C146.700000,279.300000,144.900000,274.400000,144.100000,268.800000C143.500000,259.200000,146.200000,254,152.400000,253.200000C156.600000,252.800000,159.400000,254.700000,160.700000,258.900000C161.300000,260.400000,161.700000,262.400000,161.700000,264.900000C161.100000,272.500000,157.900000,279.800000,152.100000,286.600000C150.400000,287.900000,148.400000,289.600000,146,291.700000C134.300000,301.100000,119.200000,305.700000,100.800000,305.700000C85.500000,305.700000,73,302.500000,63.400000,296.100000C53.700000,289.700000,48.800000,282.500000,48.600000,274.400000C48.600000,271.900000,49.200000,268.700000,50.500000,265C51.800000,261.300000,53.500000,259.200000,55.600000,258.800000C55.400000,256.500000,54.300000,255.600000,52.400000,256.300000C47.900000,259.500000,45.700000,264.400000,45.700000,271C45.700000,276.300000,47.100000,282.300000,49.800000,288.800000C42.100000,282.800000,37.600000,272.700000,36.100000,258.200000C34.800000,247.600000,38.100000,237.800000,46,228.900000C53.900000,220,62.100000,215.900000,70.800000,216.800000C78.500000,217.900000,87.800000,220.500000,98.800000,224.800000C103.700000,227.100000,108.700000,228.300000,113.800000,228.300000C126.100000,228.300000,134.600000,222,139.300000,209.500000C134.200000,240.700000,119.900000,257.400000,96.300000,259.500000C89.100000,259.300000,81.400000,257.500000,73.400000,254.100000C70.400000,252.600000,68.400000,252,67.300000,252.200000C66,252.800000,65.400000,253.500000,65.400000,254.100000C65.400000,254.500000,66.400000,255.300000,68.300000,256.300000C69.100000,256.300000,70.700000,257.100000,73.100000,258.500000C80.300000,262.700000,88.500000,264.500000,97.600000,263.600000C126.700000,258.500000,141.300000,239.300000,141.300000,205.900000L141.300000,53.700000C141.300000,51.100000,141.800000,48,142.900000,44.100000C140.300000,46.400000,139,49.600000,138.800000,53.700000L138.800000,193.900000C138.800000,213.700000,130.300000,223.500000,113.300000,223.500000C107.400000,223.500000,101.700000,222.200000,96.400000,219.700000C92.200000,217.800000,84.400000,215.900000,73.100000,214C57.800000,214,46.600000,220.300000,39.600000,232.800000C36.200000,239.400000,34.100000,247,33.200000,255.700000C32.800000,265.300000,35.600000,275.100000,41.800000,285.300000C52.200000,302.300000,70.400000,310.800000,96.300000,310.800000C119.400000,310.800000,137.100000,305.500000,149.200000,294.900000C149.800000,294,150.800000,292.900000,152.100000,291.400000C152.700000,291,153.700000,290,155,288.500000C160.600000,281.300000,163.700000,273.600000,164.400000,265.300000ZM53.800000,232.500000C53.800000,232.100000,53.400000,232.200000,52.500000,232.800000C48.700000,234.300000,45.800000,236.900000,43.900000,240.800000C42.600000,243.300000,42.500000,246.100000,43.600000,249.100000C43.800000,249.500000,44.300000,250.600000,45.200000,252.300000C46.100000,254,46.500000,255.300000,46.500000,256.100000C46.500000,257.600000,45.900000,258.800000,44.700000,259.600000C43.500000,260.500000,42.300000,260.500000,41,259.600000C38.200000,258.300000,38,257.200000,40.400000,256.100000C40.400000,256.300000,40.600000,256.400000,41,256.400000C41.400000,256,41.700000,255.300000,42,254.500000C41.600000,253,40.800000,252.800000,39.800000,253.900000C37.300000,256,37,258.100000,39.200000,260.300000C41.100000,262.200000,43.300000,262.300000,45.900000,260.600000C48,258.900000,48.700000,256.800000,47.800000,254.200000C47.200000,253.100000,46.500000,251.800000,45.900000,250.100000C48,250.700000,49.600000,250.700000,50.700000,250.100000C52.600000,249.500000,53.700000,248.300000,53.900000,246.600000C54.300000,243.800000,53.400000,242,51,241.200000C50.200000,241.600000,49.400000,242.400000,48.800000,243.400000C49.400000,244.300000,50.100000,244.600000,50.700000,244.400000C51.300000,244.200000,51.700000,244.200000,51.700000,244.400000C52.800000,245.700000,52.700000,246.800000,51.400000,247.900000C48.900000,250.400000,46.900000,250.300000,45.700000,247.600000C44.600000,245.900000,44.300000,244.400000,44.700000,243.100000C45.800000,239.500000,48.600000,236.300000,53.300000,233.500000C54,233.200000,54.200000,232.900000,53.800000,232.500000ZM75.500000,39.300000C75.700000,39.100000,75.200000,38.300000,73.900000,37.100000C72.600000,35.800000,69.700000,34.300000,65,32.600000C61.600000,32.400000,58.400000,33.700000,55.400000,36.400000C53.900000,38.100000,52.400000,40,50.800000,42C49.200000,44,47.500000,44.700000,45.500000,44.100000C42.300000,43.500000,40.800000,41.700000,41,38.700000C41.400000,34.700000,42.800000,33.700000,45.100000,35.800000C44.700000,34.700000,44.700000,35.100000,45.100000,36.800000C45.500000,38.500000,46.500000,38.600000,48,37.100000C49.300000,35.800000,49,34.700000,47.200000,33.800000C45.400000,32.800000,43.500000,32.900000,41.600000,34C39.900000,34.800000,39.100000,36.400000,39.100000,38.800000C39.100000,43.700000,41.500000,46.100000,46.400000,46.100000C48.500000,46.100000,50.100000,45.600000,51,44.500000C51.900000,43.400000,53.300000,41.800000,55,39.700000C55.200000,41.200000,56,43.200000,57.200000,45.800000C59.300000,47.700000,61.400000,48.500000,63.600000,48C67.200000,46.900000,68.800000,44.900000,68.400000,41.900000C68.400000,41.100000,67.900000,40.300000,66.800000,39.700000C66.200000,39.300000,65.400000,39.400000,64.600000,40C64,41.100000,64,42,64.600000,42.900000C65.400000,43.500000,65.700000,44,65.200000,44.200000C64.100000,45.900000,62.600000,46.400000,60.700000,45.800000C56.500000,43.500000,55.500000,40.700000,57.800000,37.500000C59.500000,35.800000,61.200000,34.800000,62.900000,34.600000C63.300000,34.400000,63.900000,34.300000,64.500000,34.300000C66.400000,34.300000,69.400000,36,73.400000,39.400000C74.200000,39.800000,74.800000,39.800000,75.500000,39.300000ZM118.200000,245.200000C119.500000,243.500000,120.100000,241.900000,120.100000,240.400000C120.100000,236.600000,117.400000,233.100000,112.100000,229.900000C115.900000,233.100000,117.800000,236.500000,117.800000,240.100000C117.800000,241.600000,117.600000,243,117.200000,244.200000C114.400000,248.700000,110.200000,250.900000,104.400000,250.900000C98.900000,250.900000,93.500000,247.900000,88.200000,242C93.900000,247.100000,99.200000,249.600000,104.100000,249.600000C108.800000,249.600000,112.600000,247.700000,115.600000,243.900000C116.400000,242.600000,116.900000,241.400000,116.900000,240.100000C116.900000,236.100000,113.800000,232.900000,107.700000,230.500000C112.600000,233.300000,115,236.300000,115,239.700000C115,241,114.800000,242,114.400000,242.900000C112.100000,245.900000,109.100000,247.400000,105.500000,247.400000C99.800000,247.400000,93.800000,244.200000,87.700000,237.800000C94.100000,243.300000,99.600000,246.100000,104.300000,246.100000C107.700000,246.100000,110.400000,244.700000,112.300000,242C113.800000,238,111.100000,234.800000,104.300000,232.400000C109.600000,235.400000,111.600000,238.200000,110.400000,241C109.300000,243.300000,107.300000,244.500000,104.300000,244.500000C99.400000,244.500000,93.800000,241.200000,87.400000,234.600000C93.600000,240.100000,98.900000,242.900000,103.300000,242.900000C105.600000,242.900000,107.400000,242,108.700000,240.400000C109.800000,238.100000,107.300000,236.300000,101.400000,235C105.600000,236.700000,107.500000,238.400000,106.800000,240.100000C105.300000,243.100000,101.800000,242.900000,96.300000,239.500000C93.500000,237.800000,92.200000,235.700000,92.200000,233.100000C92.200000,231.200000,92.900000,229.400000,94.400000,227.700000C95,226.800000,94.900000,225.900000,94.100000,224.800000C89.900000,223.700000,86.800000,223.900000,84.900000,225.400000C84.300000,225.800000,83.200000,228.400000,81.700000,233C81.500000,231.700000,80.600000,230.800000,79,230.100000C77.400000,229.500000,74.900000,229.300000,71.300000,229.600000C67.700000,229.900000,65,229.200000,62.900000,227.500000C62.700000,227.100000,62.500000,226.900000,62.300000,226.900000C61.200000,226.900000,60.700000,228.400000,60.700000,231.400000C60.700000,233.900000,62.900000,236.700000,67.400000,239.700000C62.900000,241.200000,60.300000,242.100000,59.400000,242.600000C56.400000,244.100000,54.600000,246.200000,54,249C53.200000,255,55.300000,258,60.400000,258.200000C62.100000,258.200000,63.300000,257.200000,63.900000,255.300000C64.300000,253.200000,63.300000,251.700000,60.700000,250.800000C60.300000,250.800000,59.900000,250.800000,59.400000,250.800000C59.200000,249.900000,59.100000,249.300000,59.100000,248.900000C59.100000,245.700000,62.200000,243.700000,68.300000,242.900000C71.900000,242.500000,76.100000,243.200000,80.700000,245.100000C84.700000,247.200000,88.800000,249.100000,92.800000,250.800000C89.800000,248.500000,87.300000,246.300000,85.100000,244.400000C78.700000,239.300000,73.900000,236.800000,70.800000,236.800000C69.500000,236.800000,67.500000,235.100000,64.700000,231.700000C67.300000,234,69.500000,235.100000,71.400000,234.900000C74.800000,234.300000,78.800000,236.500000,83.500000,241.600000C90.500000,249.500000,97.300000,253.400000,103.900000,253.400000C109.600000,253.500000,114.300000,250.700000,118.200000,245.200000ZM118.200000,54.600000C119.100000,53.100000,119.500000,51.700000,119.500000,50.500000C119.500000,47.100000,117.300000,44.100000,112.800000,41.600000C117.700000,45.200000,119.200000,49.300000,117.300000,53.700000C114.700000,57.700000,111.100000,59.800000,106.500000,59.800000C101.800000,59.800000,97.400000,57.500000,93.100000,52.800000C97.800000,56.600000,102.100000,58.500000,106.200000,58.500000C110.400000,58.500000,113.700000,56.700000,116.100000,53.100000C116.700000,52.500000,117.100000,51.500000,117.100000,50.200000C117.100000,47,114.300000,44.400000,108.800000,42.200000C114.700000,45.200000,116.800000,48.700000,114.900000,52.700000C113.200000,55.500000,110.500000,56.800000,106.900000,56.800000C102.200000,56.800000,97.400000,54.200000,92.600000,49.100000C97.700000,53.300000,102.300000,55.500000,106.300000,55.500000C109.300000,55.500000,111.500000,54.300000,113,52C114.300000,48.400000,112,45.700000,106.300000,44C110.800000,46.300000,112.500000,48.800000,111.400000,51.300000C110.600000,53.200000,108.800000,54.200000,106.300000,54.200000C102.100000,54.200000,97.500000,51.500000,92.600000,46.200000C97.500000,50.700000,101.800000,52.900000,105.700000,52.900000C107.600000,52.900000,109.200000,52.200000,110.500000,50.700000C111.100000,48.600000,109,47.100000,104.100000,46.200000C107.500000,47.500000,109.100000,48.900000,108.900000,50.300000C107.600000,53.100000,104.500000,53,99.700000,50C97.600000,48.700000,96.500000,47,96.500000,44.900000C96.500000,43.400000,97,41.700000,98.100000,39.800000C98.700000,39.400000,98.600000,38.800000,97.800000,38.200000C94.400000,37.400000,91.900000,37.600000,90.100000,38.800000C89.700000,39.200000,88.900000,41.400000,87.900000,45.200000C87.700000,44.100000,86.700000,43.400000,85,43C82,43.600000,77.700000,43.100000,71.900000,41.400000C71.500000,40.800000,71.100000,40.900000,70.600000,41.900000C70.200000,42.900000,70,43.900000,70,44.900000C70,46.800000,72,48.900000,76.100000,51.300000C72.100000,52.800000,69.700000,53.700000,69.100000,54.200000C66.800000,55.500000,65.400000,57.300000,65,59.600000C64.400000,64.700000,66.100000,67.300000,70.100000,67.300000C71.800000,67.300000,72.900000,66.500000,73.300000,64.700000C73.700000,63,72.800000,61.800000,70.400000,61.200000C71,61.200000,70.700000,61.200000,69.400000,61.200000C69.200000,60.600000,69.100000,60,69.100000,59.600000C69.100000,56.800000,71.500000,55,76.400000,54.200000C79.600000,53.800000,83.200000,54.300000,87.200000,55.800000C90.400000,57.100000,93.700000,58.500000,97.100000,59.900000C94.500000,58,92.300000,56.300000,90.400000,54.800000C85.100000,50.800000,81.200000,48.700000,78.600000,48.700000C77.500000,48.700000,75.800000,47.500000,73.500000,45.200000C75.600000,46.900000,77.400000,47.600000,78.900000,47.400000C81.900000,46.600000,85.400000,48.200000,89.400000,52.500000C94.900000,58.400000,100.400000,61.400000,106,61.400000C110.600000,61.700000,114.800000,59.300000,118.200000,54.600000ZM130,70.600000C126,70.600000,120.900000,72.400000,114.700000,76C91.800000,91.500000,81.100000,107.900000,82.800000,125.100000C83,126,83.500000,126.700000,84.400000,127.300000C84.800000,127.100000,85.200000,126.700000,85.700000,126C85.900000,119.400000,87.400000,113.200000,90.200000,107.500000C96.800000,93.300000,108.600000,81.800000,125.600000,73.100000C119,78.400000,115.700000,88.800000,115.700000,104.300000C115.700000,113.400000,116.900000,123.500000,119.200000,134.600000C120.100000,139.100000,120.900000,149.800000,121.800000,166.800000C116.900000,197.600000,105,211.700000,86.100000,209.200000C87.200000,203.900000,87.700000,198.600000,87.700000,193.300000C87.700000,178.200000,83.600000,168.300000,75.300000,163.700000C75.300000,162.800000,77.100000,161.500000,80.700000,159.600000C81.300000,159.200000,82.300000,159.500000,83.600000,160.600000C84.900000,161.700000,85.500000,162.900000,85.500000,164.400000C85.300000,170.100000,85.900000,172.400000,87.400000,171.100000C88.900000,166.600000,89.300000,161,88.700000,154.200000C88.300000,150.200000,87.900000,146.300000,87.400000,142.700000C87.200000,141.200000,86.600000,140.600000,85.800000,140.800000C85,141,84.300000,141.800000,83.900000,143C83.700000,145.100000,84.100000,149.300000,85.200000,155.400000C82.900000,155.400000,80.800000,155.800000,79.100000,156.700000C74.600000,158.200000,71.700000,161.100000,70.200000,165.300000C80.400000,171.700000,85.500000,181.200000,85.500000,194C85.500000,199.500000,84.400000,205.400000,82.300000,211.500000C84.200000,212.800000,86.900000,213.200000,90.300000,212.800000C111.100000,210,122.600000,194.900000,124.700000,167.200000C125.100000,161,124.500000,150.500000,122.800000,135.600000C120.700000,118.400000,119.500000,107,119.300000,101.500000C119.500000,97.300000,119.900000,93.400000,120.600000,90C122.100000,81.700000,125.300000,75.200000,130,70.600000ZM116.300000,167.100000C116.700000,162.400000,116.100000,159.200000,114.400000,157.500000C113.600000,157.100000,110.700000,156.600000,105.800000,156.200000C107.100000,155.600000,107.900000,154.100000,108.400000,151.700000C108.400000,150.200000,108.100000,148.100000,107.400000,145.500000C106.800000,142.900000,106.400000,141,106.400000,139.900000C106.400000,138.400000,106.800000,136.900000,107.700000,135.400000C108.300000,134.300000,107.900000,133.700000,106.400000,133.500000C105.600000,133.300000,104.500000,133.300000,103.200000,133.500000C100.600000,133.900000,98.300000,136.900000,96.200000,142.400000C92,133.900000,88,129.600000,84.400000,129.600000C78.200000,129.800000,75.500000,132.700000,76.100000,138.200000C76.300000,140.100000,77.600000,141.100000,79.900000,141.100000C82,141.300000,83.300000,140,83.700000,137.300000C83.500000,138.200000,83.300000,137.600000,83.100000,135.700000C84.200000,134.800000,85,134.400000,85.700000,134.400000C88.900000,134.400000,91.200000,137.400000,92.700000,143.300000C93.500000,145.400000,94,147.500000,94,149.700000C94,152.500000,93.500000,156.100000,92.400000,160.500000C90.900000,166,90.100000,169.500000,89.800000,171C91.500000,167.400000,93.100000,164.200000,94.600000,161.400000C98.600000,153.800000,100.300000,148.200000,99.700000,144.800000C99.500000,142,100.800000,139.600000,103.500000,137.500000C101.800000,140.700000,101.200000,143.200000,101.600000,145.100000C102.900000,148.700000,101.500000,153.400000,97.500000,159.100000C92.200000,166.500000,89.500000,173.300000,89.500000,179.500000C89.500000,187.100000,93.200000,192.900000,100.700000,196.700000C102.200000,197.300000,103.500000,197.700000,104.500000,197.700000C109,197.700000,112.500000,194.100000,115,186.900000C111.600000,194.100000,107,197,101.300000,195.500000C95.100000,192.900000,92.100000,187.900000,92.100000,180.200000C92.100000,175.100000,94.200000,169.800000,98.500000,164.300000C94.900000,170.200000,93.100000,175.400000,93.100000,179.900000C93.100000,186.300000,96,191,101.700000,193.900000C107.900000,195.600000,111.800000,191.800000,113.500000,182.400000C111.200000,190.300000,107.300000,193.300000,102,191.600000C97.500000,189.900000,95.300000,186.200000,95.300000,180.500000C95.300000,175.200000,97.500000,169.400000,102,163C98.600000,169.400000,96.900000,174.900000,96.900000,179.600000C96.900000,184.900000,98.900000,188.200000,103,189.500000C107,190.400000,109.700000,186.900000,111,179.300000C109.100000,185.500000,106.500000,188.200000,103.300000,187.600000C100.100000,186.500000,98.500000,183.900000,98.500000,179.600000C98.500000,174.700000,100.800000,168.900000,105.500000,162.100000C101.700000,168.700000,99.800000,174,99.800000,178C99.800000,181.800000,101.100000,184.500000,103.600000,186C106.400000,186.400000,107.800000,183.400000,108.100000,176.800000C107,181.700000,105.700000,184,104,183.800000C100.400000,182.700000,99.900000,178.900000,102.400000,172.300000C103.700000,168.500000,106,166.600000,109.400000,166.600000C110.900000,166.600000,112.400000,167.100000,113.900000,168.200000C114.800000,168.800000,115.600000,168.400000,116.300000,167.100000ZM99.700000,204.700000C98.900000,204.900000,98,205,97.100000,205C94.100000,205,92,202.700000,90.700000,198C90.300000,200.300000,91.300000,202.700000,93.900000,205C95.900000,206.300000,97.800000,206.200000,99.700000,204.700000ZM102.900000,199.900000C101.800000,200.300000,100.800000,200.500000,99.700000,200.500000C96.300000,200.500000,93.900000,197.700000,92.400000,192.200000C92,195.200000,93.100000,197.900000,95.900000,200.500000C98.200000,201.900000,100.500000,201.600000,102.900000,199.900000ZM110.200000,105.300000C113.200000,102.300000,113.200000,99.700000,110.200000,97.300000C109.100000,96.700000,107.900000,96.300000,106.400000,96.300000C103,96.300000,100.900000,98,100,101.400000C99.600000,103.100000,99.700000,104.600000,100.500000,105.900000C101.200000,107.200000,102.300000,108.800000,103.500000,110.700000C100.500000,110.500000,98.600000,110.700000,97.800000,111.300000C95.500000,112.800000,94.400000,114.600000,94.600000,116.700000C94.600000,120.100000,96,122,98.700000,122.400000C99.300000,122.400000,100.100000,122.200000,100.900000,121.800000C101.300000,120.900000,101.300000,120.200000,100.900000,119.600000C100.100000,118.500000,99.300000,118.300000,98.700000,119C97.900000,119.400000,97.300000,119.500000,97.100000,119.300000C95.800000,117.600000,95.800000,116,97.100000,114.500000C99.900000,111.300000,102.300000,111.100000,104.400000,113.900000C105.700000,115.800000,106.200000,117.600000,106,119.300000C105.400000,123.800000,102.400000,128,97.100000,132.100000C96.500000,132.700000,96.300000,133.300000,96.500000,133.700000C96.700000,133.900000,97.300000,133.800000,98.400000,133.400000C102.400000,130.800000,105.300000,126.900000,107,121.600000C108.300000,118.400000,108.100000,115.100000,106.400000,111.700000C106.200000,111.300000,105.200000,109.900000,103.500000,107.600000C102,105.700000,101.300000,104.200000,101.300000,103.100000C101.300000,101.600000,102,100.300000,103.500000,99.100000C105,97.900000,106.500000,97.700000,108,98.300000C111.400000,99.800000,111.800000,101.200000,109.300000,102.400000C109.100000,102.200000,108.900000,102.100000,108.700000,102.100000C107,102.100000,106.700000,103,107.700000,104.700000C108.300000,106.200000,109.100000,106.400000,110.200000,105.300000ZM121.700000,52.100000C121.900000,49.800000,120.400000,46.800000,117.200000,43.200000C119.300000,46.200000,120.400000,48.900000,120.400000,51.500000C120.400000,54.300000,119.200000,56.300000,116.900000,57.600000C119.900000,56.700000,121.500000,54.800000,121.700000,52.100000ZM124.200000,237.200000C122.700000,235.500000,121,233.600000,119.100000,231.500000C122.100000,234,123.600000,236.400000,123.600000,238.500000C123.600000,240,123,241.400000,121.700000,242.600000C123.800000,241.200000,124.600000,239.400000,124.200000,237.200000ZM124.500000,51.100000C124.700000,49.600000,123.600000,47.300000,121.300000,44.100000C123,46.700000,123.900000,48.900000,123.900000,50.800000C123.900000,53.100000,122.700000,54.800000,120.400000,55.900000C122.900000,55.300000,124.300000,53.700000,124.500000,51.100000ZM155.400000,267.500000C155.400000,260.500000,153.800000,257.400000,150.600000,258.300000C148,258.300000,146.400000,259.700000,145.500000,262.400000C145.100000,263.500000,145,264.900000,145.200000,266.900000C145.800000,273.100000,147.400000,278.300000,150,282.500000C153.600000,277.400000,155.400000,272.400000,155.400000,267.500000ZM209.900000,107.900000C210.100000,112.600000,208.100000,114.900000,203.800000,114.900000C201.500000,114.900000,200,112.900000,199.300000,108.800000L199.300000,166.200000C199.300000,181.500000,194.100000,193.200000,183.700000,201.300000C175.600000,207.200000,163.300000,211.800000,146.700000,215L151.200000,207.400000C155.200000,205.100000,157.300000,200.100000,157.300000,192.400000L157.300000,72.200000C157.300000,43.500000,174.800000,26.900000,209.900000,22.200000L205.400000,30.500000C201.400000,33.300000,199.300000,42.400000,199.300000,57.900000L199.300000,100.900000C205.400000,99.600000,208.900000,101.900000,209.900000,107.900000ZM205.200000,25C178.600000,28.600000,163.500000,43.600000,159.600000,69.900000L159.600000,194.800000C159.600000,202,157.400000,206.600000,152.900000,208.500000L151.300000,211.700000C179.800000,207.900000,195.200000,193.300000,197.500000,168L197.500000,113.200000C197.500000,111.700000,197,111.100000,195.900000,111.300000C195,111.900000,194.800000,113,195.300000,114.500000L195.300000,168.400000C194.700000,174.600000,193,180.100000,190.200000,185C184,197.100000,172.900000,204.800000,156.700000,207.900000C159.900000,205.400000,161.500000,201.500000,161.500000,196.400000L161.500000,71.500000C162.800000,64.300000,164.900000,58,167.900000,52.700000C174.900000,39.300000,185.800000,31.100000,200.700000,28.200000C196.200000,33.300000,194.400000,40.700000,195.300000,50.500000L195.300000,99.900000C196.400000,101.600000,197.100000,101.400000,197.500000,99.300000C197.700000,81,197.700000,65.400000,197.500000,52.500000C197.100000,39.300000,199,31.700000,203.200000,29.600000L205.200000,25ZM231.600000,271.600000C232.700000,264.400000,231,258.700000,226.500000,254.700000C224.800000,253.200000,223.900000,252.900000,223.900000,253.700000C223.900000,254.100000,224,254.800000,224.200000,255.600000C227.400000,260.100000,229,265,229,270.300000C227.500000,290.500000,214.100000,300.600000,188.900000,300.600000C174.700000,300.600000,163.500000,297.300000,155.400000,290.700000C155,291.300000,154.400000,292.100000,153.800000,292.900000C161.900000,300.300000,173.400000,304,188.500000,304C215.100000,303.900000,229.500000,293.100000,231.600000,271.600000ZM301.700000,202.800000C287.700000,229.800000,269.700000,243.300000,247.800000,243.300000C241.200000,243.300000,232.700000,241.200000,222.300000,236.900000L222.900000,236.900000C224,237.800000,224.300000,239.400000,223.900000,242C222.800000,244.800000,221.100000,246.100000,218.800000,246.100000C217.500000,246.100000,216.200000,245.800000,215,245.100000C212,243.600000,210.500000,241.100000,210.500000,237.500000C210.500000,236,210.800000,234.400000,211.500000,232.700000C202.800000,229.300000,196.300000,227.600000,192.100000,227.600000C185.100000,227.600000,179.300000,229.900000,174.900000,234.600000C170.500000,239.300000,168.200000,245.200000,168.200000,252.400000C168.200000,258.100000,170.100000,263.800000,173.900000,269.300000L170.700000,265.500000C165.200000,259.300000,162.400000,251.700000,162.400000,242.600000C162.400000,229.200000,167.200000,218.200000,176.700000,209.600000C186.200000,201,198.300000,197.300000,212.700000,198.600000C226.100000,199.900000,237.500000,202.400000,246.800000,206.300000C259.800000,211.800000,268,214.600000,271.700000,214.600000C281.100000,214.600000,291.100000,210.700000,301.700000,202.800000ZM174.900000,194.200000C172.600000,196.800000,170.300000,198,168.200000,198C166.700000,198,165.300000,197.300000,164.100000,195.800000C165.200000,197.900000,166.700000,199,168.900000,199C170.300000,198.800000,172.300000,197.200000,174.900000,194.200000ZM191.100000,44.100000C189.400000,42.200000,187.300000,41.200000,184.700000,41.200000C181.700000,41.200000,179.300000,42.500000,177.500000,45C175.700000,47.600000,175.100000,50.300000,175.700000,53.300000C176.600000,54.800000,177.400000,57.100000,178.300000,60.300000C174.700000,59,172.200000,58.700000,171,59.300000C167.600000,60.600000,165.700000,62.500000,165.300000,65C164.200000,70.100000,165.300000,73.300000,168.500000,74.600000C169.800000,75.200000,170.900000,75.100000,171.900000,74.300000C172.900000,73.500000,173.100000,72.400000,172.700000,71.100000C171.800000,69.800000,171,69.300000,170.100000,69.500000C168.800000,70.100000,168.100000,70.100000,167.900000,69.500000C166.600000,67.200000,166.900000,65.300000,168.700000,63.800000C170.500000,62.300000,172.600000,61.700000,174.900000,61.900000C176.800000,62.100000,178.200000,63.200000,179,65.100000C180.100000,68.100000,180.200000,70.700000,179.300000,73.100000C178.200000,75.200000,176.100000,77.800000,172.900000,80.700000C169.700000,83.700000,167.500000,86.300000,166.200000,88.500000C164.900000,90.700000,164.300000,93.400000,164.300000,96.600000C164.300000,104,166.900000,109.800000,172.300000,113.800000C174,115.300000,175.100000,115.700000,175.500000,115.100000C175.700000,114.700000,175.200000,113.900000,173.900000,112.900000C169,108.900000,166.600000,103.700000,166.600000,97.300000C166.600000,93.900000,168,91.500000,170.700000,90C175.200000,87,177.700000,87.200000,178.300000,90.600000C178.100000,90,177.700000,90.600000,177,92.500000C177.200000,93.600000,177.500000,94.400000,178,95.100000C179.700000,95.100000,180.900000,94.200000,181.500000,92.500000C181.700000,90.800000,181.300000,89.300000,180.200000,88C178.100000,84.200000,174.700000,84,170,87.400000C172.300000,85.100000,175.700000,81.300000,180.200000,76.200000C182.800000,72.800000,183.400000,68.200000,182.100000,62.500000C181.900000,61.700000,181,59.500000,179.500000,56.100000C178.200000,53.800000,177.600000,51.900000,177.600000,50.400000C177.600000,48.900000,178.200000,47.400000,179.500000,45.900000C181.800000,42.700000,184.500000,42.200000,187.500000,44.300000C188.600000,45.100000,189.300000,46.300000,189.700000,47.800000C190.300000,49.500000,189.900000,50.600000,188.400000,51C188.400000,50.800000,188.100000,50.500000,187.400000,50C186.500000,50,185.900000,50.400000,185.500000,51.100000C185.100000,51.900000,184.900000,52.600000,184.900000,53.500000C185.800000,55.800000,187,56.300000,188.700000,54.800000C193.600000,51.800000,194.300000,48.200000,191.100000,44.100000ZM177.100000,189.800000C174.300000,192.800000,171.700000,194.300000,169.100000,194.300000C167.400000,194.300000,165.800000,193.300000,164.300000,191.400000C165.600000,194.200000,167.500000,195.500000,170,195.500000C171.800000,195.100000,174.100000,193.100000,177.100000,189.800000ZM295,209.500000C286.300000,214.400000,278.400000,216.800000,271.400000,216.800000C267.200000,216.800000,263.400000,215.800000,260.300000,213.900000C242,205.600000,224.400000,201.100000,207.400000,200.500000C202.100000,200.900000,197.300000,201.900000,193.100000,203.400000C182.300000,207.200000,174.700000,213.600000,170.500000,222.500000C167.100000,228.500000,165.400000,235.100000,165.400000,242.600000C165.400000,245.600000,165.700000,248.600000,166.400000,251.800000C167.900000,234.400000,176.500000,225.700000,192.200000,225.700000C198.400000,225.700000,205.300000,227.400000,212.900000,230.800000C213.800000,231,214.400000,230.900000,214.800000,230.500000C215,230.100000,214.900000,229.400000,214.500000,228.600000C205.100000,225.200000,197.300000,223.500000,190.900000,223.500000C180.300000,223.500000,172.300000,228.800000,167,239.400000C170.200000,216.700000,183.800000,204.600000,207.800000,203.100000C212.900000,203.300000,218.100000,204,223.400000,205C235.500000,206.900000,246.700000,210.300000,256.900000,215.200000C261.800000,217.500000,267.100000,218.700000,272.800000,218.700000C278.500000,218.700000,283.700000,217.600000,288.400000,215.500000C279.500000,230.600000,266.500000,238.100000,249.500000,238.100000C241.900000,238.100000,234.600000,236.700000,227.800000,234C226.700000,233.600000,225.400000,233,223.700000,232.400000C222.600000,232,221.900000,232.100000,221.500000,232.700000C221.300000,233.300000,221.400000,234,221.800000,234.600000C235.600000,239.900000,244.900000,242.200000,249.500000,241.600000C255.700000,240.500000,261.500000,238.700000,267,236.200000C279.700000,230.800000,289.100000,221.800000,295,209.500000ZM180.600000,184.300000C177.600000,187.500000,174.700000,189.100000,171.700000,189.100000C169.800000,189.100000,168.100000,187.900000,166.600000,185.600000C167.900000,189,170,190.500000,173,190.100000C174.900000,189.900000,177.400000,187.900000,180.600000,184.300000ZM183.200000,178.300000C180,181.900000,176.900000,183.700000,174,183.700000C171.700000,183.700000,169.600000,182.500000,167.900000,180.200000C169.400000,183.400000,171.700000,185,174.900000,185C176.400000,184.800000,177.500000,184.500000,178.400000,184C180.900000,182.700000,182.500000,180.800000,183.200000,178.300000ZM208,110.700000C209.300000,105.800000,207,102.900000,201.300000,102.100000C198.100000,101.700000,194.300000,105.100000,189.800000,112.300000C189.200000,109.300000,188.600000,107.400000,188.200000,106.600000C187.300000,104.900000,186.200000,103.800000,184.800000,103.200000C183.400000,102.700000,182.300000,102.400000,181.400000,102.400000C180.300000,102.800000,179.900000,103.500000,180.100000,104.300000C180.500000,105.400000,180.700000,106.500000,180.700000,107.800000C180.700000,109.300000,180.200000,111.300000,179.300000,113.700000C178.300000,116.100000,177.900000,118.100000,177.900000,119.600000C177.900000,120.500000,178.500000,121.800000,179.800000,123.700000C175.300000,123.700000,172.900000,123.900000,172.500000,124.300000C170.600000,125.800000,169.400000,128.700000,169,132.900000C169.900000,133.800000,170.600000,134.100000,171.200000,133.900000C176.500000,132,179.700000,133.700000,180.800000,139C182.300000,145.800000,181.700000,149.400000,178.900000,149.800000C178,149.800000,177,147.500000,175.700000,142.800000C175.300000,148.700000,176.300000,151.700000,178.900000,151.700000C181.500000,148.700000,182.700000,145.900000,182.700000,143.100000C182.700000,139.500000,181.600000,134.900000,179.500000,129.400000C182.500000,135.100000,184,140.200000,184,144.700000C184,149.600000,182.300000,152.300000,178.900000,153C176.100000,153.400000,174.100000,150.700000,172.800000,144.700000C173,151.700000,175,155.100000,178.900000,154.900000C183.100000,153.600000,185.300000,150.100000,185.300000,144.400000C185.300000,140.600000,184.300000,136,182.400000,130.700000C185.200000,136,186.500000,140.900000,186.500000,145.400000C186.500000,151.800000,184.200000,155.700000,179.500000,157.200000C174.800000,158.300000,171.700000,155,170.300000,147.300000C170.700000,156.200000,173.800000,160.200000,179.500000,159.100000C185.700000,157,188.700000,152.400000,188.700000,145.400000C188.700000,141.400000,187.500000,137,185.200000,132.300000C188,137,189.300000,141.400000,189.300000,145.700000C189.300000,153.800000,186,158.800000,179.400000,160.700000C174.100000,161.300000,170.400000,158.300000,168.300000,151.500000C172.800000,159.100000,175.700000,163,177.200000,163C178.300000,163,179.200000,162.700000,180.100000,162C188,159,191.900000,153.400000,191.900000,145.100000C191.900000,140.200000,190.200000,134.400000,186.800000,127.600000C183.600000,122.100000,182.900000,117.700000,184.600000,114.500000C185,112.600000,184.800000,110,184,106.900000C185.900000,109.500000,186.600000,112.100000,185.900000,114.900000C185.200000,117.700000,186.200000,122.700000,188.800000,129.900000C189.200000,131.200000,190.300000,134.400000,192,139.500000C191.800000,135.300000,191.500000,130.900000,191,126.400000C190.400000,121.500000,190.800000,117.300000,192.300000,113.600000C194.400000,108.700000,196.700000,106.300000,199,106.300000C200.100000,106.300000,200.900000,106.700000,201.600000,107.600000C201.400000,109.100000,201.300000,109.500000,201.300000,108.900000C201.300000,111.700000,202.400000,113.100000,204.500000,113.400000C206.400000,113.300000,207.600000,112.400000,208,110.700000ZM190.200000,157.900000C185.500000,162.800000,181.200000,165.200000,177.100000,165.200000C173.900000,165.200000,171.200000,163.500000,168.800000,160.100000C170.700000,164.800000,173.900000,167.100000,178.400000,167.100000C180.100000,166.700000,181.700000,166.100000,183.200000,165.500000C186.800000,164.100000,189.100000,161.500000,190.200000,157.900000ZM184.800000,173.500000C181.600000,176.900000,178.500000,178.600000,175.600000,178.600000C173,178.600000,170.900000,177.500000,169.200000,175.400000C170.700000,178.800000,173,180.400000,176.200000,180.200000C177.700000,180,179,179.700000,180,179.200000C182.500000,178,184.100000,176.100000,184.800000,173.500000ZM188.900000,163.300000C184.700000,167.800000,180.700000,170,177.100000,170C174.100000,170,171.700000,168.500000,169.800000,165.500000C171.500000,169.500000,174.300000,171.600000,178.100000,171.600000C179.800000,171.400000,181.300000,171,182.600000,170.300000C185.500000,168.800000,187.600000,166.500000,188.900000,163.300000ZM187,168.400000C183.400000,172.400000,179.800000,174.500000,176.200000,174.500000C173.900000,174.500000,171.700000,173.200000,169.800000,170.700000C171.100000,174.300000,173.600000,176,177.400000,175.800000C178.900000,175.600000,180.300000,175.300000,181.500000,174.800000C184.100000,173.500000,185.900000,171.400000,187,168.400000ZM224,215.200000C224.400000,215,224.100000,214.300000,222.900000,213.100000C221.700000,211.900000,218.800000,210.400000,214.100000,208.500000C210.500000,208.300000,207.100000,209.600000,203.900000,212.300000C202.800000,214,201.500000,215.900000,199.900000,217.900000C198.300000,219.900000,196.300000,220.600000,194,220C191,219.400000,189.600000,217.600000,189.900000,214.600000C190.500000,210.400000,191.900000,209.400000,194,211.700000C193.800000,210.400000,193.700000,210.700000,193.700000,212.700000C194.100000,214.400000,195.200000,214.500000,196.900000,213C198.200000,211.900000,198.100000,211,196.600000,210.100000C194.500000,208.800000,192.600000,208.700000,190.900000,209.800000C189.200000,210.900000,188.300000,212.500000,188.300000,214.600000C188.300000,219.500000,190.600000,221.900000,195.300000,221.900000C197.400000,221.900000,199,221.300000,199.900000,220.100000C200.900000,218.900000,202.200000,217.400000,203.900000,215.500000C204.300000,217,205.100000,219,206.100000,221.500000C208.400000,223.400000,210.600000,224.200000,212.500000,223.700000C215.900000,222.400000,217.500000,220.300000,217.300000,217.300000C217.300000,216.700000,216.900000,216,216,215.400000C214.900000,215,214.200000,215.200000,213.800000,216C212.900000,216.900000,212.900000,217.700000,213.800000,218.500000C214.400000,218.900000,214.700000,219.400000,214.400000,219.800000C213.100000,221.500000,211.500000,221.900000,209.600000,221.100000C205.400000,219.200000,204.500000,216.500000,207,213.100000C208.500000,211.200000,210.200000,210.200000,212.100000,210.200000C212.300000,210,212.600000,209.900000,213.100000,209.900000C215.400000,209.900000,218.500000,211.500000,222.300000,214.700000C223.200000,215.800000,223.800000,215.900000,224,215.200000ZM267.300000,230.200000C267.900000,228.900000,268.300000,227.700000,268.300000,226.400000C268.300000,223,266,220,261.300000,217.500000C266.200000,221.300000,267.700000,225.300000,265.800000,229.300000C263.700000,233.500000,260.300000,235.700000,255.600000,235.700000C250.900000,235.700000,246.500000,233.300000,242.200000,228.400000C246.700000,232.600000,250.900000,234.800000,255,234.800000C259,234.800000,262.400000,232.900000,265.200000,229.100000C265.600000,228.200000,265.800000,227.300000,265.800000,226.200000C265.800000,222.800000,263.100000,220.300000,257.800000,218.600000C263.300000,221.400000,265.200000,224.800000,263.500000,228.800000C261.800000,231.600000,259.300000,232.900000,255.900000,232.900000C251.200000,232.900000,246.400000,230.500000,241.600000,225.600000C246.700000,229.600000,251.100000,231.600000,254.700000,231.600000C257.900000,231.600000,260.200000,230.300000,261.700000,227.800000C262.800000,224.400000,260.500000,221.800000,255,219.800000C259.500000,222.300000,261.300000,224.800000,260.400000,227.100000C259.300000,229.200000,257.400000,230.300000,254.700000,230.300000C250.900000,230.300000,246.300000,227.700000,241,222.300000C246.300000,226.800000,250.700000,229,254.100000,229C256.200000,229,257.900000,228.300000,259.200000,226.800000C260.100000,224.700000,257.800000,223.100000,252.500000,222C256.300000,223.500000,257.900000,225,257.300000,226.500000C256.400000,229,253.600000,228.900000,248.700000,226.200000C246.400000,224.700000,245.200000,223,245.200000,221.100000C245.200000,219.400000,245.700000,217.800000,246.800000,216.300000C247.200000,215.400000,247.200000,214.800000,246.800000,214.400000C243,213.300000,240.300000,213.500000,238.800000,215C238.400000,215.200000,237.600000,217.300000,236.600000,221.400000C236.400000,220.300000,235.400000,219.600000,233.700000,219.200000C230.700000,219.600000,226.500000,219,220.900000,217.300000C220.300000,216.900000,219.800000,217.100000,219.500000,217.900000C219.200000,218.800000,219,219.800000,219,221.100000C219,223,220.900000,225.200000,224.700000,227.800000C220.900000,228.900000,218.500000,229.700000,217.700000,230.300000C215.400000,231.800000,214.100000,233.600000,213.900000,235.700000C213,240.600000,214.800000,243,219,243C220.500000,243,221.400000,242.300000,221.900000,240.800000C222.300000,238.900000,221.500000,237.600000,219.300000,237C219.700000,237.200000,219.200000,237.300000,217.700000,237.300000C217.500000,236.700000,217.400000,236.100000,217.400000,235.700000C217.400000,232.700000,220,230.900000,225.400000,230.300000C228.200000,229.700000,231.700000,230.100000,235.900000,231.600000C239.100000,233.100000,242.400000,234.500000,245.800000,235.700000C243.500000,234,241.300000,232.400000,239.400000,230.900000C233.900000,226.700000,229.800000,224.600000,227.300000,224.900000C226.400000,224.900000,224.700000,223.700000,222.200000,221.400000C224.500000,223.100000,226.400000,223.800000,227.900000,223.600000C230.900000,222.700000,234.300000,224.500000,238.100000,228.700000C243.800000,234.700000,249.300000,237.600000,254.400000,237.600000C259.500000,237.500000,263.900000,235.100000,267.300000,230.200000ZM270.500000,227.700000C270.500000,225.600000,269,222.700000,266,219.100000C268.300000,222.100000,269.500000,224.700000,269.500000,227.100000C269.500000,229.900000,268.100000,232,265.400000,233.500000C268.600000,232.800000,270.300000,230.900000,270.500000,227.700000ZM273.400000,227C273.800000,225.300000,272.600000,223,269.900000,220C271.800000,222.500000,272.800000,224.800000,272.800000,226.700000C272.800000,229,271.700000,230.700000,269.600000,231.800000C271.900000,231.200000,273.100000,229.600000,273.400000,227Z" fill="rgb(255,255,255)" fill-rule="evenodd" stroke="none" stroke-width="1"/><path id="eWPFkBrGd5e6" d="M228.900000,40.600000C229.600000,40,230.700000,39.100000,232.300000,37.700000C233.900000,36.400000,235.700000,35,237.800000,33.600000C239.900000,32.200000,242.200000,30.900000,244.700000,29.900000C247.200000,28.900000,249.700000,28.300000,252.200000,28.300000C254,28.300000,255.800000,28.900000,257.500000,30.100000C259.200000,31.300000,260,33.300000,260,36.200000C260,37.300000,259.400000,38.800000,258.300000,40.500000C257.200000,42.300000,256.600000,43.800000,256.600000,45.100000C256.600000,45.700000,257,46.200000,257.700000,46.600000C258.400000,47,259.100000,47.200000,259.800000,47.200000C261.600000,47.200000,263.300000,46.400000,264.900000,44.900000C266.500000,43.400000,268.600000,42.300000,271.300000,41.700000C272,42,272.400000,42.700000,272.400000,43.800000C271,44.400000,269.400000,45.400000,267.500000,46.800000C265.700000,48.200000,263.700000,49.600000,261.500000,50.900000C259.400000,52.200000,257.200000,53.500000,254.900000,54.500000C252.600000,55.500000,250.400000,56.100000,248.100000,56.100000C245.500000,56.100000,243.400000,55.500000,241.600000,54.200000C239.800000,52.900000,238.900000,50.900000,238.900000,48C238.900000,46.900000,239.400000,45.500000,240.500000,44C241.600000,42.500000,242.100000,41.100000,242.100000,40C242.100000,39.600000,241.900000,39.200000,241.600000,38.800000C241.200000,38.500000,240.500000,38.300000,239.400000,38.300000C237.600000,38.300000,236,38.900000,234.700000,40C233.400000,41.100000,232,42.100000,230.500000,42.800000C229,42.700000,228.400000,42,228.900000,40.600000ZM259.400000,76.300000C259.400000,73.600000,257.300000,72.300000,253,72.500000C250.300000,76.500000,247.600000,80.100000,245,83.600000C242.400000,87,238.900000,89.900000,234.700000,92.300000C234,93.400000,233.700000,94.500000,233.700000,95.600000C233.800000,96.700000,234.200000,97.200000,235.100000,97.200000C236,97.200000,236.800000,96.900000,237.800000,96.300000C238.700000,95.700000,239.600000,95.700000,240.500000,96.100000L240.500000,185.700000C240.500000,188.400000,242.600000,189.700000,246.900000,189.500000C249.700000,185.500000,252.400000,181.800000,255,178.400000C257.500000,175,261,172.100000,265.200000,169.700000C266.600000,167.400000,266.500000,165.800000,264.800000,164.800000L262.900000,165.200000C262.900000,151.400000,263.200000,140.900000,263.800000,133.600000C264.400000,126.300000,265.400000,121.400000,266.800000,118.800000C267.500000,117.800000,268.300000,117,269.200000,116.500000C270.100000,115.900000,270.900000,115.400000,271.600000,115C272,113.100000,272.100000,111.900000,271.800000,111.300000C271.500000,110.700000,271.100000,110.300000,270.500000,110.100000C268,110.100000,266,111.600000,264.500000,114.600000C263,117.600000,262.100000,121.600000,261.600000,126.500000C261.100000,131.400000,260.900000,137.300000,260.900000,144.100000C260.900000,150.800000,261,158,261.100000,165.500000L259.400000,165.900000L259.400000,76.300000Z" fill="rgb(255,255,255)" fill-rule="evenodd" stroke="none" stroke-width="1"/><path id="eWPFkBrGd5e7" d="M287.500000,151.300000L287.500000,53.300000C287.500000,49.300000,286.800000,44.700000,285.300000,39.500000C283.800000,34.300000,280.700000,30.100000,276.100000,27L277,25.300000C280.100000,25.700000,283.800000,27.800000,288,31.600000C292.200000,35.400000,295.600000,40.500000,298,47C298.600000,43.200000,300.200000,39.200000,302.800000,35C305.400000,30.800000,308.700000,27,312.600000,23.500000C316.500000,20,320.800000,17.200000,325.500000,14.900000C330.200000,12.600000,334.800000,11.500000,339.300000,11.500000C343.700000,11.500000,347.900000,12.700000,352.100000,15C356.200000,17.300000,358.300000,20.600000,358.300000,24.900000C358.300000,27.600000,357.300000,30,355.300000,32.200000C353.300000,34.400000,352.400000,36.900000,352.500000,39.700000C352.500000,40.300000,352.800000,40.900000,353.400000,41.700000C354,42.500000,354.700000,42.800000,355.700000,42.700000C358.400000,42.600000,361.100000,41.400000,363.800000,39.300000C364.400000,40.100000,364.400000,41.300000,363.800000,42.700000C362.100000,43.400000,360.200000,44.100000,358.100000,44.800000C356,45.500000,353.900000,45.900000,351.700000,45.900000C348.400000,45.900000,346.100000,44.900000,344.700000,42.800000C343.300000,40.700000,342.600000,38.700000,342.600000,36.500000C342.600000,33.100000,343.500000,30.400000,345.400000,28.500000C347.200000,26.600000,348.200000,24.400000,348.200000,22C348.200000,19.300000,347.100000,17.400000,345,16.400000C342.900000,15.400000,339.900000,14.800000,336.100000,14.800000C329.900000,14.800000,324.800000,17.600000,321,23.200000C317.200000,28.800000,314.200000,35.300000,312.100000,42.600000C310,50,308.600000,57.200000,307.900000,64.300000C307.200000,71.400000,306.800000,76.500000,306.800000,79.600000L306.800000,96.200000C315.300000,88.600000,320.600000,79.900000,322.700000,70.300000C328.700000,69.900000,333.900000,71,338.500000,73.800000C343.100000,76.600000,347,80.100000,350.100000,84.400000C353.200000,88.700000,355.600000,93.500000,357.100000,98.800000C358.700000,104.100000,359.400000,109.100000,359.400000,113.800000C359.400000,119.200000,358.500000,124.400000,356.700000,129.400000C354.900000,134.400000,352.700000,139.200000,350,143.700000C347.300000,148.200000,344.200000,152.600000,340.800000,156.900000C337.400000,161.200000,333.900000,165.300000,330.500000,169.200000C327.700000,172.600000,324.900000,175.900000,322.200000,179.200000C319.500000,182.500000,317.600000,185.900000,316.500000,189.400000C308.100000,186.800000,301.300000,182.700000,296.100000,177.100000C290.500000,171.500000,287.800000,162.900000,287.500000,151.300000ZM306.400000,149.400000C306.400000,156.600000,308.300000,161.600000,312,164.400000C315.700000,167.200000,320,168.800000,324.600000,169.400000C331.100000,162.200000,335.500000,154.700000,337.800000,146.900000C340.100000,139.100000,341.200000,131.100000,341.200000,122.900000C341.200000,117.900000,340.600000,113.800000,339.500000,110.500000C338.400000,107.200000,336.800000,104.300000,334.900000,102C333,99.700000,330.700000,97.600000,328.100000,95.900000C325.500000,94.200000,322.700000,92.500000,319.700000,90.800000C316.600000,91.800000,314.100000,93.200000,312.300000,94.900000C310.500000,96.600000,308.500000,98.300000,306.300000,99.900000L306.400000,149.400000L306.400000,149.400000ZM308.900000,82.900000C309,71.800000,309.800000,62.600000,311,55.100000C312.300000,47.600000,314,41.500000,316.300000,36.900000C318.600000,32.300000,321.200000,29,324.100000,27C327,25,330.100000,24,333.600000,24C335,25.300000,334.900000,26.700000,333.400000,28.200000C329.400000,28.200000,326.100000,29.700000,323.300000,32.800000C320.500000,35.900000,318.300000,39.900000,316.500000,45C314.700000,50.100000,313.400000,55.900000,312.600000,62.500000C311.800000,69.100000,311.200000,76,310.900000,83.200000C310.300000,83.700000,309.600000,83.600000,308.900000,82.900000ZM329.800000,112.800000C322,115.500000,316.700000,120.600000,313.800000,128C310.900000,135.400000,310.100000,144.800000,311.400000,155.900000C310.800000,155.800000,310.400000,155.200000,310.100000,154.200000C308.800000,127.700000,314.800000,112.800000,327.900000,109.400000C329.400000,110.300000,330,111.400000,329.800000,112.800000Z" fill="rgb(255,255,255)" fill-rule="evenodd" stroke="none" stroke-width="1"/><path id="eWPFkBrGd5e8" style="mix-blend-mode:lighten" d="M405.200000,71.600000C408.600000,71.900000,411.800000,73.100000,414.900000,75.300000C417.900000,77.500000,420.700000,80.300000,423.100000,83.600000C425.500000,86.900000,427.400000,90.500000,428.800000,94.300000C430.200000,98.100000,430.900000,101.800000,430.900000,105.400000C430.900000,111.100000,430.100000,116,428.500000,120.200000C426.900000,124.400000,424.800000,128,422.200000,131.100000C419.700000,134.200000,416.800000,136.900000,413.600000,139.100000C410.400000,141.300000,407.300000,143.300000,404.100000,145.200000L402.400000,142C405.900000,139.900000,409.500000,136.900000,413.100000,133.200000C416.700000,129.400000,418.500000,125.400000,418.500000,121C418.500000,116.800000,417.600000,113,415.700000,109.600000C413.800000,106.200000,411.700000,103.400000,409.300000,100.900000C406.900000,98.400000,404.500000,96.400000,402.300000,95C400,93.500000,398.500000,92.400000,397.600000,91.700000L397.600000,90.400000C392.400000,94.600000,388.600000,99.900000,386.200000,106.200000C383.800000,112.500000,382.700000,119.900000,382.700000,128.400000C382.700000,132.800000,383.700000,137.400000,385.800000,142.200000C387.800000,147,390.500000,151.400000,393.900000,155.500000C397.200000,159.500000,401,162.900000,405.300000,165.600000C409.600000,168.300000,413.800000,169.600000,418.100000,169.600000C419.900000,169.600000,421.300000,169,422.200000,167.700000C423.100000,166.400000,424.900000,165.600000,427.400000,165.100000C427.800000,165.700000,428,166.400000,428,167.200000C428,168,428.100000,168.800000,428.200000,169.500000C424.900000,170.900000,422.800000,173.500000,421.800000,177.100000C420.800000,180.700000,420,184.900000,419.500000,189.400000C414,189.400000,408.200000,188.300000,402.200000,186C396.200000,183.700000,390.600000,180.400000,385.500000,175.900000C380.400000,171.400000,376.200000,166,373,159.400000C369.700000,152.900000,368.200000,145.500000,368.300000,137.100000C368.400000,132.600000,369.400000,127.900000,371.100000,123.100000C372.800000,118.300000,375,113.700000,377.800000,109.200000C380.600000,104.700000,383.700000,100.500000,387.200000,96.400000C390.700000,92.300000,394.200000,88.900000,397.900000,85.900000C398.800000,80.400000,401.200000,75.600000,405.200000,71.600000ZM407.100000,110.700000C408,112.400000,407.200000,114.200000,405,116C402.700000,116.300000,400.900000,117.200000,399.500000,118.700000C398.100000,120.200000,397,122,396.200000,124C395.400000,126.100000,394.900000,128.200000,394.600000,130.600000C394.300000,132.900000,394.200000,135.100000,394.200000,137.100000C394.200000,142.100000,395.700000,146.900000,398.700000,151.700000C401.700000,156.500000,405.100000,160.100000,408.900000,162.600000C409.200000,163.900000,408.700000,164.500000,407.400000,164.500000C402.900000,160.500000,399,156.400000,395.700000,152.100000C392.400000,147.800000,390.800000,142,390.800000,134.800000C390.800000,132.400000,391.100000,129.700000,391.700000,126.800000C392.300000,123.900000,393.200000,121.200000,394.500000,118.800000C395.800000,116.400000,397.500000,114.400000,399.600000,112.900000C401.600000,111.300000,404.100000,110.600000,407.100000,110.700000Z" transform="matrix(1 0 0 1 0 -0.44999999999999)" fill="rgb(255,255,255)" fill-rule="evenodd" stroke="none" stroke-width="1"/><path id="eWPFkBrGd5e9" d="M460.800000,166.400000L462.500000,166C462.400000,158.500000,462.300000,151.400000,462.300000,144.600000C462.300000,137.900000,462.500000,132,463,127.100000C463.500000,122.100000,464.500000,118.200000,465.900000,115.200000C467.300000,112.200000,469.300000,110.700000,471.900000,110.700000C472.500000,110.800000,472.900000,111.200000,473.200000,111.900000C473.500000,112.600000,473.400000,113.800000,473,115.600000C472.300000,116,471.500000,116.500000,470.600000,117C469.700000,117.500000,468.900000,118.300000,468.200000,119.400000C466.800000,122,465.800000,126.800000,465.200000,134.100000C464.600000,141.300000,464.300000,151.900000,464.300000,165.700000L466.200000,165.300000C467.900000,166.300000,468,167.900000,466.600000,170.200000C462.400000,172.600000,459,175.500000,456.400000,178.900000C453.900000,182.300000,451.200000,186,448.300000,190C444.100000,190.100000,441.900000,188.900000,441.900000,186.200000L441.900000,96.700000C441,96.300000,440.200000,96.300000,439.200000,96.900000C438.300000,97.500000,437.400000,97.800000,436.500000,97.800000C435.600000,97.800000,435.200000,97.200000,435.100000,96.100000C435,95,435.300000,93.900000,436.100000,92.900000C440.300000,90.500000,443.800000,87.600000,446.400000,84.200000C449,80.800000,451.700000,77.100000,454.400000,73.100000C458.600000,73,460.800000,74.200000,460.800000,76.900000L460.800000,95.800000C464.300000,93.800000,467.700000,90.700000,470.800000,86.400000C473.900000,82.200000,477.100000,77.700000,480.400000,73C482.400000,73,484.400000,73.500000,486.400000,74.600000C488.400000,75.700000,490.300000,77,491.800000,78.700000C493.400000,80.400000,494.600000,82.200000,495.600000,84.200000C496.600000,86.200000,497.100000,88.100000,497.100000,89.900000C497.100000,93.900000,496.200000,97.600000,494.300000,101.200000C492.400000,104.800000,490.400000,107.900000,488.100000,110.600000C485.800000,113.400000,483.800000,115.700000,481.900000,117.700000C480.100000,119.700000,479.100000,121.100000,479.100000,121.900000C479.100000,123.700000,480.200000,125.400000,482.400000,126.800000C484.600000,128.200000,485.700000,129.900000,485.700000,131.700000C485.700000,133.700000,485.200000,135.300000,484.300000,136.600000C483.400000,137.900000,482.300000,138.500000,481.200000,138.500000C481.200000,137.100000,480.800000,135.900000,480.100000,135.100000C479.400000,134.200000,478.600000,133.400000,477.800000,132.700000C477,132,476.200000,131,475.600000,129.800000C475,128.700000,474.600000,127.200000,474.600000,125.300000C474.600000,123.600000,475.100000,121.900000,476,120.200000C476.900000,118.500000,477.900000,116.800000,479.100000,115.200000C480.200000,113.600000,481.300000,111.900000,482.200000,110.300000C483.100000,108.700000,483.600000,106.900000,483.600000,105.100000C483.600000,101.400000,482.500000,98.400000,480.200000,96.200000C477.900000,94,475.400000,92.800000,472.800000,92.800000C469.700000,92.800000,467.400000,94,466,96.400000C464.600000,98.800000,462.800000,101.100000,460.700000,103.200000L460.800000,166.400000L460.800000,166.400000Z" fill="rgb(255,255,255)" fill-rule="evenodd" stroke="none" stroke-width="1"/><path id="eWPFkBrGd5e10" d="M505.200000,77.800000C503.100000,76.200000,503.200000,74.300000,505.400000,72.100000C506.700000,72.100000,507.900000,72.100000,509.100000,72.200000C510.300000,72.300000,511.500000,72.400000,512.800000,72.500000L512.800000,56.100000C512.800000,52.100000,512.100000,47.500000,510.600000,42.300000C509.100000,37.100000,506,32.900000,501.400000,29.800000L502.200000,28.100000C505.300000,28.500000,508.900000,30.300000,513,33.500000C517.100000,36.700000,520.400000,41.500000,522.800000,48.100000C523.800000,40.300000,526.100000,33.500000,529.700000,27.600000C533.300000,21.700000,537.900000,17.200000,543.600000,14.100000L542.800000,18.100000C539,22.300000,536.200000,27.300000,534.400000,32.900000C532.600000,38.500000,531.700000,44.300000,531.700000,50.400000L531.700000,72.300000C534.100000,71.700000,536.200000,70.900000,538.100000,69.600000C539.900000,68.400000,541.600000,66.600000,543,64.200000C543.800000,64.800000,544.400000,65.500000,544.700000,66.300000C543.400000,69.800000,542.200000,73.200000,541,76.300000C539.800000,79.400000,539.200000,83.200000,539.200000,87.600000C539.200000,90,539.900000,92.400000,541.400000,94.700000C542.900000,97,543.600000,99.300000,543.600000,101.600000C543.600000,102.600000,543.400000,103.800000,543.100000,105.300000C542.700000,106.800000,542.100000,107.500000,541.300000,107.500000C540,105.400000,539.100000,102.700000,538.500000,99.500000C537.900000,96.300000,537.500000,93.200000,537.100000,90.100000C536.700000,87.100000,536.400000,84.300000,536.100000,81.900000C535.800000,79.500000,535.400000,78.100000,534.800000,77.700000L531.600000,77.700000L531.600000,165.900000L533.300000,165.500000C533.200000,158,533.100000,150.900000,533.100000,144.100000C533.100000,137.400000,533.300000,131.500000,533.800000,126.600000C534.300000,121.600000,535.300000,117.700000,536.700000,114.700000C538.100000,111.700000,540.100000,110.200000,542.700000,110.200000C543.300000,110.300000,543.700000,110.700000,544,111.400000C544.300000,112.100000,544.200000,113.300000,543.800000,115.100000C543.100000,115.500000,542.300000,116,541.400000,116.500000C540.500000,117,539.700000,117.800000,539,118.900000C537.600000,121.500000,536.600000,126.300000,536,133.600000C535.400000,140.800000,535.200000,151.400000,535.200000,165.200000L537.100000,164.800000C538.800000,165.800000,538.900000,167.400000,537.500000,169.700000C533.300000,172.100000,529.800000,175,527.300000,178.400000C524.800000,181.800000,522.100000,185.500000,519.200000,189.500000C515,189.600000,512.800000,188.400000,512.800000,185.700000L512.800000,77.800000L505.200000,77.800000Z" fill="rgb(255,255,255)" fill-rule="evenodd" stroke="none" stroke-width="1"/><path id="eWPFkBrGd5e11" d="M607,123.100000C607,136.100000,608.500000,146,611.500000,152.900000C614.500000,159.800000,619.200000,164.900000,625.500000,168.300000C626.600000,167.700000,627.900000,167,629.300000,166C630.700000,165,631.900000,164.500000,632.900000,164.500000C633,164.600000,633.300000,165.100000,633.600000,166C633.900000,166.900000,634,167.600000,633.700000,168.300000C631.400000,169.700000,629.800000,171.300000,628.700000,173.100000C627.600000,174.900000,626.700000,176.700000,625.900000,178.600000C625.100000,180.500000,624.400000,182.400000,623.700000,184.200000C623,186,621.800000,187.800000,620.100000,189.500000C615,189.500000,610.400000,187.400000,606.400000,183.100000C602.400000,178.900000,599.200000,173.500000,596.900000,167C594.800000,167.900000,593,169.100000,591.600000,170.800000C590.200000,172.500000,589,174.400000,588,176.400000C587,178.500000,586.100000,180.600000,585.200000,182.900000C584.400000,185.200000,583.300000,187.300000,582,189.300000C578.300000,189.300000,574.500000,187.900000,570.500000,185C566.500000,182.100000,563,178.300000,559.800000,173.600000C556.600000,168.900000,554,163.500000,551.900000,157.600000C549.900000,151.700000,548.800000,145.700000,548.800000,139.600000C548.800000,135.500000,549.400000,130.900000,550.500000,125.900000C551.600000,120.900000,553.200000,115.800000,555.200000,110.500000C557.200000,105.200000,559.600000,100.300000,562.500000,95.400000C565.400000,90.600000,568.600000,86.400000,572.200000,82.900000C574.600000,80.500000,576.700000,78.500000,578.500000,76.800000C580.300000,75.200000,582,73.900000,583.800000,73C585.600000,72.100000,587.500000,71.400000,589.500000,71.100000C591.500000,70.800000,594.100000,70.600000,597.300000,70.600000C601,70.600000,604.600000,71.300000,608,72.700000C611.500000,74.100000,615.100000,74.800000,618.900000,74.800000C619.700000,74.800000,620.600000,74.500000,621.600000,74C622.500000,73.500000,623.400000,72.900000,624.300000,72.400000C624.400000,72.100000,624.600000,71.800000,624.900000,71.500000C625.200000,71.200000,625.500000,70.900000,625.700000,70.600000C626.400000,70.600000,627.100000,70.700000,627.800000,71C628.500000,71.300000,628.900000,71.800000,629.100000,72.700000C621.700000,79.900000,616.200000,87.300000,612.400000,94.900000C608.800000,102.400000,607,111.800000,607,123.100000ZM592.500000,141.300000C592.500000,131.800000,594.400000,122.600000,598.200000,113.700000C602,104.800000,606.800000,96.300000,612.400000,88.200000C607.200000,88.300000,601.900000,87.800000,596.800000,86.700000C591.600000,85.600000,586.400000,85,581.200000,85C577,85,573.600000,86.300000,571.100000,88.900000C568.600000,91.500000,566.700000,94.700000,565.500000,98.600000C564.200000,102.400000,563.400000,106.500000,563,110.900000C562.600000,115.300000,562.400000,119.300000,562.400000,122.800000C562.400000,128.700000,563.200000,134.400000,564.700000,139.900000C566.300000,145.300000,568.300000,150.100000,570.700000,154.100000C573.200000,158.100000,575.900000,161.400000,578.900000,163.800000C581.900000,166.200000,584.700000,167.400000,587.400000,167.400000C590.200000,167.400000,593.100000,166.400000,596.100000,164.400000C593.700000,156.900000,592.500000,149.200000,592.500000,141.300000ZM582.300000,161.700000C581.900000,162.400000,581.500000,162.800000,581.200000,163C576.700000,158.900000,573.300000,154.100000,571.100000,148.600000C568.900000,143.100000,567.800000,137.500000,567.800000,132C567.800000,130.300000,568,128.400000,568.500000,126.200000C569,124,569.800000,121.800000,570.900000,119.700000C572,117.600000,573.500000,115.600000,575.400000,113.800000C577.300000,112,579.400000,110.500000,582,109.600000C584,110.600000,585.200000,112.100000,585.600000,114.100000C580.600000,114.400000,576.800000,116.800000,574.100000,121.400000C571.400000,126,570.100000,131.500000,570.100000,137.900000C570.100000,142.400000,571.300000,146.800000,573.700000,150.900000C576.200000,154.700000,579.100000,158.400000,582.300000,161.700000ZM611.200000,145.300000C611.200000,142.600000,611.800000,140.300000,613,138.500000C614.200000,136.700000,615.700000,135,617.600000,133.600000C619.700000,133.600000,620.600000,134.400000,620.400000,135.900000C616.600000,138.600000,614.700000,141.700000,614.700000,145.300000C614.700000,151.700000,617,156.700000,621.500000,160.400000C621.600000,161,621.600000,161.400000,621.300000,161.800000C621,162.200000,620.700000,162.500000,620.500000,162.800000C618.700000,160.200000,616.700000,157.500000,614.500000,154.400000C612.300000,151.300000,611.200000,148.300000,611.200000,145.300000Z" fill="rgb(255,255,255)" fill-rule="evenodd" stroke="none" stroke-width="1"/><path id="eWPFkBrGd5e12" d="M638,185.700000L638,56.100000C638,52,637.300000,47.400000,635.800000,42.300000C634.300000,37.200000,631.200000,33,626.600000,29.800000L627.400000,28.100000C630.500000,28.500000,634.100000,30.300000,638.200000,33.500000C642.300000,36.700000,645.600000,41.500000,648,48.100000C649,40.300000,651.300000,33.500000,654.900000,27.600000C658.500000,21.700000,663.100000,17.200000,668.800000,14.100000L668,18.100000C664.200000,22.300000,661.400000,27.200000,659.600000,32.800000C657.800000,38.300000,656.900000,44.200000,656.900000,50.400000L656.900000,166L658.600000,165.600000C658.500000,158.100000,658.400000,151,658.400000,144.200000C658.400000,137.500000,658.600000,131.600000,659.100000,126.700000C659.600000,121.700000,660.600000,117.800000,662,114.800000C663.400000,111.800000,665.400000,110.300000,668,110.300000C668.600000,110.400000,669,110.800000,669.300000,111.500000C669.600000,112.200000,669.500000,113.400000,669.100000,115.200000C668.400000,115.600000,667.600000,116.100000,666.700000,116.700000C665.800000,117.300000,665,118.100000,664.300000,119C662.900000,121.600000,661.900000,126.500000,661.300000,133.800000C660.700000,141.100000,660.500000,151.600000,660.500000,165.400000L662.400000,165C664.100000,166,664.200000,167.600000,662.800000,169.900000C658.600000,172.300000,655.100000,175.200000,652.600000,178.600000C650.100000,182,647.400000,185.700000,644.500000,189.700000C640.100000,189.600000,638,188.400000,638,185.700000Z" fill="rgb(255,255,255)" fill-rule="evenodd" stroke="none" stroke-width="1"/><path id="eWPFkBrGd5e13" d="M673.900000,40.600000C674.600000,40,675.700000,39.100000,677.300000,37.700000C678.900000,36.400000,680.700000,35,682.800000,33.600000C684.900000,32.200000,687.200000,30.900000,689.700000,29.900000C692.200000,28.800000,694.700000,28.300000,697.200000,28.300000C699,28.300000,700.800000,28.900000,702.500000,30.100000C704.200000,31.300000,705,33.300000,705,36.200000C705,37.300000,704.400000,38.800000,703.300000,40.500000C702.200000,42.300000,701.600000,43.800000,701.600000,45.100000C701.600000,45.700000,701.900000,46.200000,702.700000,46.600000C703.400000,47,704.100000,47.200000,704.800000,47.200000C706.600000,47.200000,708.300000,46.400000,709.900000,44.900000C711.500000,43.400000,713.600000,42.300000,716.300000,41.700000C717,42,717.400000,42.700000,717.400000,43.800000C716,44.400000,714.400000,45.400000,712.500000,46.800000C710.700000,48.200000,708.700000,49.600000,706.500000,50.900000C704.400000,52.200000,702.200000,53.500000,699.900000,54.500000C697.600000,55.600000,695.400000,56.100000,693.100000,56.100000C690.600000,56.100000,688.400000,55.500000,686.600000,54.200000C684.800000,52.900000,683.900000,50.900000,683.900000,48C683.900000,46.900000,684.400000,45.500000,685.500000,44C686.600000,42.500000,687.100000,41.100000,687.100000,40C687.100000,39.600000,686.900000,39.200000,686.600000,38.800000C686.200000,38.500000,685.500000,38.300000,684.400000,38.300000C682.600000,38.300000,681,38.900000,679.700000,40C678.400000,41.100000,677,42.100000,675.500000,42.800000C674,42.700000,673.500000,42,673.900000,40.600000ZM704.500000,76.300000C704.500000,73.600000,702.400000,72.300000,698.100000,72.500000C695.400000,76.500000,692.800000,80.100000,690.100000,83.600000C687.500000,87,684.100000,89.900000,679.800000,92.300000C679.100000,93.400000,678.800000,94.500000,678.800000,95.600000C678.800000,96.700000,679.300000,97.200000,680.200000,97.200000C681.100000,97.200000,681.900000,96.900000,682.900000,96.300000C683.800000,95.700000,684.700000,95.700000,685.600000,96.100000L685.600000,185.700000C685.600000,188.400000,687.700000,189.700000,692,189.500000C694.800000,185.500000,697.500000,181.800000,700.100000,178.400000C702.600000,175,706.100000,172.100000,710.300000,169.700000C711.700000,167.400000,711.600000,165.800000,709.900000,164.800000L708,165.200000C708,151.400000,708.300000,140.900000,708.800000,133.600000C709.400000,126.300000,710.400000,121.400000,711.800000,118.800000C712.500000,117.800000,713.300000,117,714.200000,116.500000C715.100000,115.900000,715.900000,115.400000,716.600000,115C717,113.100000,717.100000,111.900000,716.800000,111.300000C716.500000,110.700000,716.100000,110.300000,715.500000,110.100000C713,110.100000,711,111.600000,709.500000,114.600000C708,117.600000,707.100000,121.600000,706.600000,126.500000C706.100000,131.400000,705.900000,137.300000,705.900000,144.100000C705.900000,150.800000,706,158,706.100000,165.500000L704.400000,165.900000L704.500000,76.300000L704.500000,76.300000Z" fill="rgb(255,255,255)" fill-rule="evenodd" stroke="none" stroke-width="1"/><path id="eWPFkBrGd5e14" d="M779.700000,123.100000C779.700000,136.100000,781.200000,146,784.200000,152.900000C787.200000,159.800000,791.900000,164.900000,798.200000,168.300000C799.300000,167.700000,800.600000,167,802,166C803.400000,165,804.600000,164.500000,805.600000,164.500000C805.700000,164.600000,806,165.100000,806.300000,166C806.600000,166.900000,806.700000,167.600000,806.400000,168.300000C804.100000,169.700000,802.500000,171.300000,801.400000,173.100000C800.300000,174.900000,799.400000,176.700000,798.600000,178.600000C797.800000,180.500000,797.100000,182.400000,796.400000,184.200000C795.700000,186,794.500000,187.800000,792.800000,189.500000C787.700000,189.500000,783.100000,187.400000,779.100000,183.100000C775.100000,178.900000,771.900000,173.500000,769.600000,167C767.500000,167.900000,765.700000,169.100000,764.300000,170.800000C762.900000,172.500000,761.700000,174.400000,760.700000,176.400000C759.700000,178.500000,758.800000,180.600000,757.900000,182.900000C757.100000,185.200000,756,187.300000,754.700000,189.300000C751,189.300000,747.200000,187.900000,743.200000,185C739.200000,182.100000,735.700000,178.300000,732.500000,173.600000C729.300000,168.900000,726.700000,163.500000,724.600000,157.600000C722.600000,151.700000,721.500000,145.700000,721.500000,139.600000C721.500000,135.500000,722.100000,130.900000,723.200000,125.900000C724.300000,120.900000,725.900000,115.800000,727.900000,110.500000C729.900000,105.200000,732.300000,100.300000,735.200000,95.400000C738.100000,90.600000,741.300000,86.400000,744.900000,82.900000C747.300000,80.500000,749.400000,78.500000,751.200000,76.800000C753,75.200000,754.700000,73.900000,756.500000,73C758.300000,72.100000,760.200000,71.400000,762.200000,71.100000C764.200000,70.800000,766.800000,70.600000,770,70.600000C773.700000,70.600000,777.300000,71.300000,780.700000,72.700000C784.200000,74.100000,787.800000,74.800000,791.600000,74.800000C792.400000,74.800000,793.300000,74.500000,794.300000,74C795.200000,73.500000,796.100000,72.900000,797,72.400000C797.100000,72.100000,797.300000,71.800000,797.600000,71.500000C797.900000,71.200000,798.200000,70.900000,798.400000,70.600000C799.100000,70.600000,799.800000,70.700000,800.500000,71C801.200000,71.300000,801.600000,71.800000,801.800000,72.700000C794.400000,79.900000,788.900000,87.300000,785.100000,94.900000C781.600000,102.400000,779.700000,111.800000,779.700000,123.100000ZM765.200000,141.300000C765.200000,131.800000,767.100000,122.600000,770.900000,113.700000C774.700000,104.800000,779.500000,96.300000,785.100000,88.200000C779.900000,88.300000,774.600000,87.800000,769.500000,86.700000C764.300000,85.600000,759.100000,85,753.900000,85C749.700000,85,746.300000,86.300000,743.800000,88.900000C741.300000,91.500000,739.400000,94.700000,738.200000,98.600000C736.900000,102.400000,736.100000,106.500000,735.700000,110.900000C735.300000,115.300000,735.100000,119.300000,735.100000,122.800000C735.100000,128.700000,735.900000,134.400000,737.400000,139.900000C739,145.300000,741,150.100000,743.400000,154.100000C745.900000,158.100000,748.600000,161.400000,751.600000,163.800000C754.600000,166.200000,757.400000,167.400000,760.100000,167.400000C762.900000,167.400000,765.800000,166.400000,768.800000,164.400000C766.400000,156.900000,765.200000,149.200000,765.200000,141.300000ZM755,161.700000C754.600000,162.400000,754.200000,162.800000,753.900000,163C749.400000,158.900000,746,154.100000,743.800000,148.600000C741.600000,143.100000,740.500000,137.500000,740.500000,132C740.500000,130.300000,740.700000,128.400000,741.200000,126.200000C741.700000,124,742.500000,121.800000,743.600000,119.700000C744.700000,117.600000,746.200000,115.600000,748.100000,113.800000C750,112,752.100000,110.500000,754.700000,109.600000C756.700000,110.600000,757.900000,112.100000,758.300000,114.100000C753.300000,114.400000,749.500000,116.800000,746.800000,121.400000C744.100000,126,742.800000,131.500000,742.800000,137.900000C742.800000,142.400000,744,146.800000,746.400000,150.900000C749,154.700000,751.800000,158.400000,755,161.700000ZM783.900000,145.300000C783.900000,142.600000,784.500000,140.300000,785.700000,138.500000C786.900000,136.700000,788.400000,135,790.300000,133.600000C792.400000,133.600000,793.300000,134.400000,793.100000,135.900000C789.300000,138.600000,787.400000,141.700000,787.400000,145.300000C787.400000,151.700000,789.700000,156.700000,794.200000,160.400000C794.300000,161,794.300000,161.400000,794,161.800000C793.700000,162.200000,793.400000,162.500000,793.200000,162.800000C791.400000,160.200000,789.400000,157.500000,787.200000,154.400000C785,151.300000,783.900000,148.300000,783.900000,145.300000Z" fill="rgb(255,255,255)" fill-rule="evenodd" stroke="none" stroke-width="1"/></g></g></g></svg>